<svg xmlns="http://www.w3.org/2000/svg" width="128" height="128" viewBox="0 0 128 128">
    <path fill="#231F20" d="M25.7 30.4c0 11.6 6.2 19.4 14.6 25l.4.3c-5 3.4-15 11.4-15 20.5 0 7 4.4 13.6 14 15.7-10.2 1.8-21.2 6.3-21.2 17.5v1C7.3 98.7 0 83.4 0 65.7c0-26 15.6-48 37.2-58.4-7 5.3-11.5 13-11.5 23zm50.5 66.8c8 0 12.4 4 12.4 10 0 7-5 12.2-24 12.2-16.6 0-22.3-5.6-22.3-12 0-4.6 2-10.2 10.2-10.2h23.7zm32.6 14c2.2-4.4 3.5-9.5 3.5-15.2 0-17.4-9.3-25-29-25H51.8c-3.4 0-6.3-2.8-6.3-5.8 0-2.2 1.8-4.7 4-6.4 4.8 1.6 8.8 1.7 14.5 1.7 22.5 0 38-11 37.8-30.2 0-11-4.8-18.7-12.5-23.3C112 16.7 128 39 128 65.8c0 18-7.4 34-19.2 45.5zM64 50c-6.3 0-11.5-1.5-11.5-19.4 0-18 5.2-20.2 11.5-20.2 6.5 0 11.5 2.8 11.5 20.2 0 17.5-5.2 19.4-11.5 19.4z"/>
</svg>
