<svg xmlns="http://www.w3.org/2000/svg" width="128" height="128" viewBox="0 0 128 128"><path d="M113.8 98.7v15.1H14.1V14.2h42.7V0H14.2C6.4 0 0 6.4 0 14.2v99.6c0 7.8 6.4 14.2 14.2 14.2h99.6c7.8 0 14.2-6.4 14.2-14.2V98.7h-14.2z"/><path d="M67.7 88.6H118c4.6 0 8.4-3.8 8.4-8.4V38.3c0-4.6-3.8-8.4-8.4-8.4h-4.2v-8.4c0-11.5-9.4-20.9-21-20.9s-21 9.4-21 20.9v8.4h-4.2c-4.6 0-8.4 3.8-8.4 8.4v41.9c.1 4.6 3.9 8.4 8.5 8.4zM92.8 70C86.9 70 82 65.2 82 59.2c0-5.9 4.9-10.8 10.8-10.8s10.8 4.9 10.8 10.8c0 6-4.8 10.8-10.8 10.8zM79.9 21.5c0-7.2 5.8-13 13-13s13 5.8 13 13v8.4h-26v-8.4z"/></svg>