<?xml version="1.0" encoding="utf-8"?>
<!-- Generator: Adobe Illustrator 27.1.1, SVG Export Plug-In . SVG Version: 6.00 Build 0)  -->
<svg version="1.1" id="Layer_1" xmlns="http://www.w3.org/2000/svg" xmlns:xlink="http://www.w3.org/1999/xlink" x="0px" y="0px"
	 viewBox="0 0 140.6 87" style="enable-background:new 0 0 140.6 87;" xml:space="preserve">
<style type="text/css">
	.st0{opacity:0.8;fill:#92DCA2;enable-background:new    ;}
	.st1{opacity:0.8;}
	.st2{fill:#92DCA2;}
</style>
<path class="st0" d="M140.3,51.9l-15.5-9.7c-0.2-0.2-0.5-0.2-0.8,0c-0.2,0.1-0.4,0.4-0.4,0.7v7H5V5h130.3v33.9
	c0,1.4,1.1,2.5,2.5,2.5s2.5-1.1,2.5-2.5V2.5c0-1.4-1.1-2.5-2.5-2.5H2.5C1.1,0,0,1.1,0,2.5v49.9c0,1.4,1.1,2.5,2.5,2.5h121.1v7.3
	c0,0.3,0.2,0.5,0.4,0.7c0.1,0.1,0.2,0.1,0.4,0.1c0.1,0,0.3,0,0.4-0.1l15.5-9.7c0.2-0.1,0.4-0.4,0.4-0.7S140.5,52,140.3,51.9z"/>
<g class="st1">
	<path class="st2" d="M33.2,26.8c-0.7-0.5-1.6-0.9-2.5-1.3c-0.9-0.3-1.9-0.6-2.9-0.9c-0.9-0.2-1.7-0.5-2.4-0.7
		c-0.6-0.2-1.1-0.5-1.4-0.8c-0.3-0.3-0.4-0.7-0.4-1.3c0-0.8,0.3-1.4,1-1.8c0.7-0.5,1.7-0.7,3-0.7c1.2,0,2.4,0.1,3.4,0.5
		c1.1,0.3,2,0.7,2.8,1.2c0.2,0.1,0.4,0.1,0.5,0c0.2-0.1,0.3-0.3,0.3-0.5V17c0-0.2-0.1-0.4-0.3-0.5c-0.9-0.5-2-0.9-3.1-1.2
		c-1.1-0.3-2.4-0.4-3.5-0.4c-1.8,0-3.4,0.3-4.7,0.8c-1.4,0.6-2.4,1.4-3.2,2.5c-0.8,1.1-1.1,2.4-1.1,3.9c0,1.1,0.2,2.1,0.6,2.8
		c0.4,0.8,1,1.5,1.7,2c0.7,0.5,1.5,0.9,2.5,1.3c0.9,0.4,2,0.7,3.1,0.9c0.6,0.1,1.2,0.3,1.7,0.5c0.5,0.1,1,0.4,1.4,0.6
		c0.4,0.2,0.6,0.5,0.9,0.8c0.2,0.3,0.3,0.7,0.3,1.2c0,0.8-0.3,1.5-1,2c-0.8,0.5-1.9,0.8-3.3,0.8c-2.4,0-4.7-0.7-6.7-1.9
		c-0.2-0.1-0.4-0.1-0.5,0c-0.2,0.1-0.3,0.3-0.3,0.5v3.6c0,0.2,0.1,0.4,0.3,0.5c1.1,0.6,2.2,1,3.5,1.3s2.5,0.4,3.7,0.4
		c1.9,0,3.6-0.3,5-0.9c1.4-0.6,2.5-1.5,3.3-2.5c0.8-1.1,1.2-2.5,1.2-4c0-1.2-0.2-2.2-0.7-3.1S34,27.4,33.2,26.8L33.2,26.8z"/>
	<path class="st2" d="M56.4,26.9c-1.5-3.7-3-7.5-4.6-11.2c-0.1-0.2-0.3-0.3-0.5-0.3h-4.2c-0.2,0-0.4,0.1-0.5,0.3
		c-1.5,3.5-3.1,7.2-4.5,10.9c-1.5,3.7-3,7.6-4.4,11.5c-0.1,0.2,0,0.3,0.1,0.5c0.1,0.1,0.3,0.2,0.4,0.2h4.2c0.2,0,0.4-0.1,0.5-0.4
		l0.9-2.7c0.3-0.8,0.5-1.6,0.8-2.4h9.1c0.3,0.8,0.6,1.6,0.9,2.4c0.3,0.9,0.6,1.8,1,2.7c0.1,0.2,0.3,0.4,0.5,0.4h4.3
		c0.2,0,0.3-0.1,0.4-0.2s0.1-0.3,0.1-0.5C59.4,34.4,57.9,30.6,56.4,26.9L56.4,26.9z M46.2,29c0.5-1.4,1-2.8,1.5-4.2
		c0.5-1.2,0.9-2.4,1.4-3.6c0.5,1.2,0.9,2.4,1.4,3.6c0.5,1.4,1,2.8,1.5,4.2L46.2,29L46.2,29z"/>
	<path class="st2" d="M79.3,34.4H68.8V16c0-0.3-0.2-0.5-0.5-0.5h-4c-0.3,0-0.5,0.2-0.5,0.5v22.4c0,0.3,0.2,0.5,0.5,0.5h15
		c0.3,0,0.5-0.2,0.5-0.5v-3.4C79.9,34.6,79.6,34.4,79.3,34.4L79.3,34.4z"/>
	<path class="st2" d="M99.2,34.5H88.1V29h9.3c0.3,0,0.5-0.2,0.5-0.5v-3.4c0-0.3-0.2-0.5-0.5-0.5h-9.3v-4.7h10.5
		c0.3,0,0.5-0.2,0.5-0.5v-3.3c0-0.3-0.2-0.5-0.5-0.5h-15c-0.3,0-0.5,0.2-0.5,0.5v22.4c0,0.3,0.2,0.5,0.5,0.5h15.6
		c0.3,0,0.5-0.2,0.5-0.5V35C99.7,34.7,99.5,34.5,99.2,34.5L99.2,34.5z"/>
	<path class="st2" d="M120,28.9c-0.4-0.8-1-1.5-1.8-2c-0.7-0.5-1.6-0.9-2.5-1.3c-0.9-0.3-1.9-0.6-2.9-0.9c-0.9-0.2-1.7-0.5-2.4-0.7
		c-0.6-0.2-1.1-0.5-1.4-0.8c-0.3-0.3-0.4-0.7-0.4-1.3c0-0.8,0.3-1.4,1-1.8c0.7-0.5,1.7-0.7,3-0.7c1.2,0,2.3,0.1,3.4,0.5
		c1.1,0.3,2,0.7,2.8,1.2c0.2,0.1,0.4,0.1,0.5,0s0.3-0.3,0.3-0.5V17c0-0.2-0.1-0.4-0.3-0.5c-0.9-0.5-2-0.9-3.1-1.2
		c-1.2-0.3-2.3-0.4-3.6-0.4c-1.8,0-3.4,0.3-4.7,0.8c-1.4,0.6-2.4,1.4-3.2,2.5c-0.8,1.1-1.1,2.4-1.1,3.9c0,1.1,0.2,2,0.6,2.8
		s1,1.5,1.7,2c0.7,0.5,1.5,0.9,2.5,1.3c0.9,0.4,2,0.7,3.1,0.9c0.6,0.1,1.2,0.3,1.7,0.5c0.5,0.1,1,0.4,1.3,0.6
		c0.4,0.2,0.6,0.5,0.8,0.8c0.2,0.3,0.3,0.7,0.3,1.2c0,0.8-0.3,1.5-1,2c-0.8,0.5-1.9,0.8-3.3,0.8c-2.4,0-4.7-0.7-6.7-1.9
		c-0.2-0.1-0.4-0.1-0.5,0c-0.2,0.1-0.3,0.3-0.3,0.5v3.6c0,0.2,0.1,0.4,0.3,0.5c1.1,0.6,2.2,1,3.5,1.3s2.5,0.4,3.7,0.4
		c1.9,0,3.6-0.3,5-0.9c1.4-0.6,2.5-1.5,3.3-2.5c0.8-1.1,1.2-2.5,1.2-4C120.7,30.7,120.4,29.7,120,28.9L120,28.9z"/>
</g>
</svg>
