<svg version="1.1"
     id="Layer_1"
     xmlns="http://www.w3.org/2000/svg"
     xmlns:xlink="http://www.w3.org/1999/xlink"
     x="0px" y="0px"
     viewBox="0 0 37 24"
     fill="none"
     xml:space="preserve">
<path fill-rule="evenodd" clip-rule="evenodd" d="M25.9398 0.836282C26.0179 0.914387 26.0179 1.04102 25.9398 1.11913L9.22264 17.8363C9.14454 17.9144 9.0179 17.9144 8.9398 17.8363L8.16209 17.0586C8.08399 16.9805 8.08399 16.8538 8.16209 16.7757L24.8793 0.0585791C24.9574 -0.0195257 25.084 -0.0195267 25.1621 0.0585782L25.9398 0.836282Z" fill="white"/>
  <line x1="0.700781" y1="15.2973" x2="8.50078" y2="15.2973" stroke="white" stroke-width="1.3" stroke-linecap="round"/>
  <line x1="13.7008" y1="15.2973" x2="31.4008" y2="15.2973" stroke="white" stroke-width="1.3" stroke-linecap="round"/>
  <path d="M35.9246 15.1269C36.0515 15.205 36.0515 15.3894 35.9246 15.4675L32.006 17.8807C31.8728 17.9628 31.7012 17.8669 31.7012 17.7104L31.7012 12.8839C31.7012 12.7274 31.8728 12.6316 32.006 12.7136L35.9246 15.1269Z" fill="white"/>
  <line x1="21.4008" y1="2.59727" x2="0.700781" y2="2.59727" stroke="white" stroke-width="1.3" stroke-linecap="round"/>
  <line x1="35.4008" y1="2.59727" x2="25.7008" y2="2.59727" stroke="white" stroke-width="1.3" stroke-linecap="round"/>
  <path d="M0.650391 2.64746L0.65039 15.2475" stroke="white" stroke-width="1.3" stroke-linecap="round"/>
  <path d="M35.4512 2.59717L35.4512 11.5972" stroke="white" stroke-width="1.3" stroke-linecap="round"/>
  <path d="M8.56325 8.76929C8.38401 8.64231 8.15357 8.54072 7.92313 8.43913C7.69269 8.36294 7.43665 8.28675 7.1806 8.21056C6.95016 8.15977 6.74532 8.08358 6.56609 8.03278C6.41246 7.98199 6.28444 7.9058 6.20763 7.82961C6.13081 7.75342 6.10521 7.65183 6.10521 7.49945C6.10521 7.29628 6.18202 7.1439 6.36125 7.04231C6.54049 6.91532 6.79653 6.86453 7.12939 6.86453C7.43665 6.86453 7.7439 6.88993 7.99995 6.99151C8.2816 7.06771 8.51204 7.16929 8.71687 7.29628C8.76808 7.32167 8.81929 7.32167 8.8449 7.29628C8.8961 7.27088 8.92171 7.22009 8.92171 7.16929V6.2804C8.92171 6.22961 8.8961 6.17882 8.8449 6.15342C8.61445 6.02644 8.3328 5.92485 8.05115 5.84866C7.7695 5.77247 7.43665 5.74707 7.155 5.74707C6.69411 5.74707 6.28444 5.82326 5.95158 5.95024C5.59312 6.10263 5.33707 6.3058 5.13224 6.58517C4.9274 6.86453 4.85059 7.19469 4.85059 7.57564C4.85059 7.85501 4.90179 8.10898 5.00421 8.28675C5.10663 8.48993 5.26026 8.66771 5.43949 8.79469C5.61872 8.92167 5.82356 9.02326 6.0796 9.12485C6.31005 9.22644 6.5917 9.30263 6.87335 9.35342C7.02697 9.37882 7.1806 9.42961 7.30862 9.4804C7.43665 9.5058 7.56467 9.58199 7.66709 9.63279C7.7695 9.68358 7.82071 9.75977 7.89753 9.83596C7.94874 9.91215 7.97434 10.0137 7.97434 10.1407C7.97434 10.3439 7.89753 10.5217 7.7183 10.6487C7.51346 10.7756 7.23181 10.8518 6.87335 10.8518C6.25884 10.8518 5.66993 10.6741 5.15784 10.3693C5.10663 10.3439 5.05542 10.3439 5.02982 10.3693C4.97861 10.3947 4.953 10.4455 4.953 10.4963V11.4106C4.953 11.4614 4.97861 11.5122 5.02982 11.5375C5.31147 11.6899 5.59312 11.7915 5.92598 11.8677C6.25884 11.9439 6.56609 11.9693 6.87335 11.9693C7.35983 11.9693 7.79511 11.8931 8.15357 11.7407C8.51204 11.5883 8.79369 11.3598 8.99852 11.1058C9.20336 10.8264 9.30578 10.4709 9.30578 10.0899C9.30578 9.78517 9.25457 9.5312 9.12655 9.30263C8.99852 9.07405 8.76808 8.92167 8.56325 8.76929Z" fill="white"/>
  <path d="M14.5037 8.79466C14.1197 7.85498 13.7356 6.8899 13.3259 5.95021C13.3003 5.89942 13.2491 5.87402 13.1979 5.87402H12.1225C12.0713 5.87402 12.0201 5.89942 11.9945 5.95021C11.6104 6.8391 11.2007 7.77879 10.8423 8.71847C10.4582 9.65815 10.0741 10.6486 9.71568 11.6391C9.69008 11.6899 9.71568 11.7153 9.74129 11.7661C9.76689 11.7915 9.8181 11.8169 9.84371 11.8169H10.9191C10.9703 11.8169 11.0215 11.7915 11.0471 11.7153L11.2776 11.0296C11.3544 10.8264 11.4056 10.6232 11.4824 10.4201H13.8124C13.8892 10.6232 13.966 10.8264 14.0429 11.0296C14.1197 11.2582 14.1965 11.4867 14.2989 11.7153C14.3245 11.7661 14.3757 11.8169 14.4269 11.8169H15.5279C15.5791 11.8169 15.6047 11.7915 15.6303 11.7661C15.6559 11.7407 15.6559 11.6899 15.6559 11.6391C15.2719 10.6994 14.8878 9.73434 14.5037 8.79466ZM11.8921 9.32799C12.0201 8.97244 12.1481 8.61688 12.2761 8.26133C12.4042 7.95656 12.5066 7.6518 12.6346 7.34704C12.7626 7.6518 12.865 7.95656 12.9931 8.26133C13.1211 8.61688 13.2491 8.97244 13.3771 9.32799H11.8921Z" fill="white"/>
  <path d="M20.3671 10.6994H17.6787V6.0264C17.6787 5.95021 17.6275 5.89941 17.5506 5.89941H16.5265C16.4496 5.89941 16.3984 5.95021 16.3984 6.0264V11.7153C16.3984 11.7915 16.4496 11.8423 16.5265 11.8423H20.3671C20.444 11.8423 20.4952 11.7915 20.4952 11.7153V10.8518C20.5208 10.7502 20.444 10.6994 20.3671 10.6994Z" fill="white"/>
  <path d="M25.4622 10.7248H22.6201V9.32798H25.0013C25.0781 9.32798 25.1293 9.27719 25.1293 9.201V8.3375C25.1293 8.26131 25.0781 8.21052 25.0013 8.21052H22.6201V7.01687H25.3085C25.3854 7.01687 25.4366 6.96607 25.4366 6.88988V6.05179C25.4366 5.9756 25.3854 5.9248 25.3085 5.9248H21.4679C21.3911 5.9248 21.3398 5.9756 21.3398 6.05179V11.7407C21.3398 11.8169 21.3911 11.8677 21.4679 11.8677H25.4622C25.539 11.8677 25.5902 11.8169 25.5902 11.7407V10.8518C25.5902 10.7756 25.539 10.7248 25.4622 10.7248Z" fill="white"/>
  <path d="M30.788 9.30263C30.6856 9.09945 30.532 8.92167 30.3271 8.79469C30.1479 8.66771 29.9175 8.56612 29.687 8.46453C29.4566 8.38834 29.2005 8.31215 28.9445 8.23596C28.714 8.18517 28.5092 8.10898 28.33 8.05818C28.1764 8.00739 28.0483 7.9312 27.9715 7.85501C27.8947 7.77882 27.8691 7.67723 27.8691 7.52485C27.8691 7.32167 27.9459 7.16929 28.1251 7.06771C28.3044 6.94072 28.5604 6.88993 28.8933 6.88993C29.2005 6.88993 29.4822 6.91532 29.7638 7.01691C30.0455 7.0931 30.2759 7.19469 30.4808 7.32167C30.532 7.34707 30.5832 7.34707 30.6088 7.32167C30.6344 7.29628 30.6856 7.24548 30.6856 7.19469V6.2804C30.6856 6.22961 30.66 6.17882 30.6088 6.15342C30.3783 6.02644 30.0967 5.92485 29.815 5.84866C29.5078 5.77247 29.2261 5.74707 28.8933 5.74707C28.4324 5.74707 28.0227 5.82326 27.6899 5.95024C27.3314 6.10263 27.0754 6.3058 26.8705 6.58517C26.6657 6.86453 26.5889 7.19469 26.5889 7.57564C26.5889 7.85501 26.6401 8.08358 26.7425 8.28675C26.8449 8.48993 26.9985 8.66771 27.1778 8.79469C27.357 8.92167 27.5618 9.02326 27.8179 9.12485C28.0483 9.22644 28.33 9.30263 28.6116 9.35342C28.7653 9.37882 28.9189 9.42961 29.0469 9.4804C29.1749 9.5058 29.303 9.58199 29.3798 9.63279C29.4822 9.68358 29.5334 9.75977 29.5846 9.83596C29.6358 9.91215 29.6614 10.0137 29.6614 10.1407C29.6614 10.3439 29.5846 10.5217 29.4054 10.6487C29.2005 10.7756 28.9189 10.8518 28.5604 10.8518C27.9459 10.8518 27.357 10.6741 26.8449 10.3693C26.7937 10.3439 26.7425 10.3439 26.7169 10.3693C26.6657 10.3947 26.6401 10.4455 26.6401 10.4963V11.4106C26.6401 11.4614 26.6657 11.5122 26.7169 11.5375C26.9985 11.6899 27.2802 11.7915 27.613 11.8677C27.9459 11.9439 28.2532 11.9693 28.5604 11.9693C29.0469 11.9693 29.4822 11.8931 29.8406 11.7407C30.1991 11.5883 30.4808 11.3598 30.6856 11.1058C30.8904 10.8264 30.9929 10.4709 30.9929 10.0899C30.9672 9.75977 30.8904 9.5058 30.788 9.30263Z" fill="white"/>
</svg>
