<svg width="18" height="18" viewBox="0 0 18 18" fill="none" xmlns="http://www.w3.org/2000/svg">
  <g clip-path="url(#clip0_268_2061)">
    <path d="M9 17.4375C13.7812 17.4375 17.4375 13.7812 17.4375 9C17.4375 4.21875 13.7812 0.5625 9 0.5625C4.21875 0.5625 0.5625 4.21875 0.5625 9C0.5625 13.7812 4.21875 17.4375 9 17.4375ZM12.7125 11.4187V13.275H5.0625V11.7C5.90625 11.4187 6.35625 10.8562 6.35625 10.0687C6.35625 9.7875 6.35625 9.5625 6.24375 9.3375H4.8375V8.04375H5.9625C5.85 7.70625 5.7375 7.3125 5.7375 6.80625C5.7375 5.00625 7.2 3.9375 9.5625 3.9375C10.575 3.9375 11.5312 4.10625 12.375 4.55625V6.525C11.6438 6.075 10.8 5.85 9.95625 5.85C8.6625 5.85 8.04375 6.35625 8.04375 7.2C8.04375 7.5375 8.1 7.81875 8.15625 8.04375H10.9125V9.3375H8.49375C8.49375 9.50625 8.55 9.675 8.55 9.7875C8.55 10.4625 8.26875 11.025 7.70625 11.3625H12.7125V11.4187Z" fill="#E51854"/>
  </g>
  <defs>
    <clipPath id="clip0_268_2061">
      <rect width="18" height="18" fill="white"/>
    </clipPath>
  </defs>
</svg>
